<svg width="181" height="158" viewBox="0 0 181 158" fill="none" xmlns="http://www.w3.org/2000/svg">
<path d="M38.8168 102.457C43.8592 106.162 48.0987 109.277 54.3027 110.575C54.3027 108.429 56.6297 111.679 57.266 112.353C58.9057 114.089 60.0386 116.245 61.8097 118.016C65.0408 121.247 68.5416 125.15 72.8067 127.038C82.5393 131.346 90.2338 137.475 99.1139 143.204C104.135 146.443 109.371 149.072 115.083 150.876C119.899 152.397 124.867 152.419 129.57 153.839C132.742 154.797 134.456 153.741 137.538 152.654C144.968 150.031 152.544 144.34 158.774 139.582C162.589 136.669 163.647 131.933 166.775 128.421C169.538 125.318 173.133 123.583 176.258 120.98C177.73 119.753 176.33 116.354 176.06 114.855C175.368 111.015 174.547 107.192 174.743 103.266C175.306 92.0019 175.319 81.0883 173.722 69.9125C172.467 61.1232 171.454 52.2121 171.056 43.3419C170.752 36.582 171.182 29.3607 169.278 22.8295C167.422 16.4664 165.988 10.5094 160.421 6.33393C157.575 4.19998 151.509 4.39347 148.074 4.02916C145.311 3.73616 142.989 5.72377 140.567 6.72903C136.854 8.27027 133.115 9.0932 129.109 9.23135C123.286 9.43214 118.317 12.3083 112.58 13.0836C107.823 13.7264 103.04 13.7722 98.2908 14.5982C95.2857 15.1208 92.2032 16.6302 89.2035 16.9029C85.9366 17.1999 83.3892 17.3952 80.4124 19.0431C75.4218 21.8057 70.7758 20.6826 65.2339 20.5576C59.0669 20.4185 52.7414 20.4444 47.0592 22.8624C44.1095 24.1176 41.6627 25.9517 39.1571 27.9329C38.1948 28.6938 36.6558 30.501 35.272 30.501C32.5083 30.501 30.6417 30.3876 27.9296 31.5217C24.9953 32.7488 22.5954 34.5273 19.3362 34.6825C13.0909 34.9799 9.65407 37.814 6.42948 43.3419C0.983498 52.6778 5.81438 63.2087 9.9854 72.1843C13.216 79.1363 16.7792 85.2518 22.5958 90.3591C27.6288 94.7783 33.2825 98.3907 38.6633 102.344L38.8168 102.457Z" fill="#FFF757" stroke="black" stroke-width="7" stroke-linecap="round"/>
<path d="M143.811 33.4467C143.467 32.4334 143.056 32.1667 142.415 31.9134C141.012 31.3934 138.636 32.18 138.636 32.18C138.636 32.18 54.523 62.42 49.7177 65.7667C48.683 66.4867 48.3364 66.9133 48.1644 67.4067C47.3337 69.78 49.9217 70.8334 49.9217 70.8334L71.6017 77.9C71.6017 77.9 72.4097 78.02 72.6977 77.8334C77.6297 74.7134 122.319 46.5 124.896 45.5533C125.303 45.4333 125.604 45.5667 125.524 45.8467C124.492 49.4734 85.6777 83.9667 85.6777 83.9667C85.6777 83.9667 85.5297 84.1534 85.4364 84.3667L85.3857 84.34L83.363 105.847C83.363 105.847 82.515 112.433 89.103 105.847C93.751 101.193 98.2484 97.3 100.499 95.42C107.954 100.567 115.976 106.26 119.439 109.233C121.178 110.727 122.632 110.967 123.83 110.927C127.116 110.807 128.034 107.193 128.034 107.193C128.034 107.193 143.362 45.5 143.874 37.2334C143.924 36.42 143.994 35.9133 143.999 35.3533C144.008 34.58 143.936 33.8067 143.811 33.4467Z" fill="black"/>
</svg>
