<svg width="170" height="160" viewBox="0 0 170 160" fill="none" xmlns="http://www.w3.org/2000/svg">
<path d="M22.9074 71.0358C26.9282 75.0566 29.3758 81.9741 29.568 87.4834C28.8485 89.642 27.5134 91.9848 25.8752 93.6229C22.5602 96.938 20.0726 100.516 17.6514 104.52C15.3295 108.36 11.7789 111.444 9.24641 115.168C7.00307 118.467 5.01889 123.094 4.10371 127.016C3.06315 131.476 4.14543 135.892 5.12319 140.292C5.49633 141.971 7.10765 143.807 7.90976 145.322C8.44262 146.328 8.6403 147.495 9.26906 148.426C10.7196 150.572 11.0195 153.404 12.4408 155.494C13.4262 156.943 18.5229 155.922 19.8263 155.811C24.0232 155.453 28.1823 154.742 32.3772 154.361C35.9841 154.033 39.5275 153.193 43.0478 152.753C47.9717 152.137 52.1222 150.959 56.7994 149.241C60.5871 147.85 64.5577 147.126 68.3081 145.707C72.0742 144.282 75.2981 141.019 77.2795 137.551C77.5601 137.06 79.3701 131.874 80.0435 134.062C80.5841 135.819 80.237 137.428 81.5613 139.046C83.1906 141.038 85.2183 143.085 87.1118 144.801C88.774 146.307 90.4605 147.973 92.5717 148.833C94.5992 149.659 96.7136 150.055 98.7112 151.008C102.001 152.578 104.573 152.011 108.09 152.413C111.731 152.829 114.808 151.099 118.444 151.099C122.267 151.099 126.298 150.447 130.066 150.918C136.503 151.722 141.824 151.922 148.077 150.51C152.059 149.61 155.753 149.154 159.608 147.655C162.136 146.672 162.225 143.722 163.323 141.493C164.406 139.297 166.278 136.996 165.68 134.379C164.417 128.854 159.705 125.961 156.482 121.738C155.128 119.964 154.287 117.836 152.721 116.21C151.457 114.899 150.315 113.788 149.209 112.313C145.339 107.153 141.13 102.905 138.176 96.9985C135.99 92.6263 134.851 87.9375 133.124 83.4055C132.164 80.8856 130.943 78.6858 130.723 75.9293C130.543 73.6817 133.063 72.8871 134.37 71.5796C135.302 70.6481 135.804 69.1054 136.908 68.3172C139.321 66.5937 142.293 65.9596 144.225 63.7862C146.646 61.0624 150.064 59.6714 152.336 56.8311C153.55 55.3134 154.725 53.3343 155.553 51.5751C156.374 49.8291 156.135 48.1989 156.482 46.3871C156.702 45.2348 157.446 44.2264 157.592 43.0568C157.725 41.9909 157.207 40.8647 157.207 39.7719C157.207 37.2911 158.445 35.6394 157.705 33.3378C156.359 29.149 156.799 24.6242 156.799 20.2885C156.799 8.15986 139.509 8.37195 131.017 8.37195C128.356 8.37195 125.344 8.5554 122.703 9.00629C118.824 9.66862 115.581 11.0387 111.919 12.2233C107.548 13.6375 103.6 14.8664 99.5495 17.1168C96.9377 18.5678 97.1393 20.8998 95.2224 23.0298C93.4833 24.962 92.1034 25.048 90.3289 23.4602C89.8119 22.9977 89.2139 23.1051 88.9016 22.4181C88.4079 21.3319 88.364 20.0315 87.7915 18.9745C87.1901 17.8643 85.8699 17.0559 85.0276 16.12C84.5844 15.6276 84.8427 14.8514 84.3932 14.4662C83.11 13.3663 81.9836 12.8371 80.6551 11.9514C77.6778 9.96652 75.4593 7.55637 71.7517 7.55637C69.6305 7.55637 67.5733 7.14857 65.4536 7.14857C63.8574 7.14857 62.2422 7.2289 60.6734 6.87671C57.8352 6.23957 55.0341 4.48441 52.0418 4.79245C49.4059 5.06379 47.1832 5.5679 44.4524 5.29086C42.3956 5.0822 40.4681 4.53997 38.4488 4.20342C33.5212 3.38216 28.9126 7.49543 24.4479 8.98363C23.2021 9.39891 21.7605 9.30185 20.6872 10.1844C19.4474 11.2038 18.7088 13.1498 17.7874 14.4662C15.2005 18.1616 16.5808 24.3345 15.907 28.5123C15.2666 32.4826 16.8649 36.3167 16.9265 40.3156C16.9439 41.4468 16.8807 42.584 16.9491 43.7138C17.0771 45.8261 18.1016 47.7308 18.1498 49.8307C18.2127 52.5662 17.6825 55.635 18.1952 58.3263C18.6917 60.9333 19.9564 63.572 20.5966 66.1877C21.1084 68.2788 21.4336 69.562 22.9074 71.0358Z" fill="#FF63EA" stroke="black" stroke-width="7" stroke-linecap="round"/>
<path d="M110.057 123.508L84.8883 86.9407L81.3041 81.7353L52.0991 39.3029H64.6618L88.2803 73.619L91.8642 78.8244L122.619 123.508H110.057ZM127.813 119.936L96.113 73.8826L92.5292 68.674L69.853 35.7302L67.9736 33.0001H40.1094L46.905 42.8749L77.0554 86.6826L80.6394 91.8856L104.865 127.084L106.744 129.811H134.609L127.813 119.936Z" fill="black"/>
<path d="M81.3036 81.7353L84.8878 86.9407L80.6389 91.8856L48.039 129.811H40L77.0549 86.6826L81.3036 81.7353Z" fill="black"/>
<path d="M131.247 33L96.1062 73.8826L91.8573 78.8243L88.2734 73.619L92.5223 68.674L116.326 40.9674L123.208 33H131.247Z" fill="black"/>
</svg>
