<svg width="179" height="190" viewBox="0 0 179 190" fill="none" xmlns="http://www.w3.org/2000/svg">
<path d="M7.03566 91.0883C8.05496 107.137 3.87874 122.957 4.35935 138.995C3.91936 139.481 3.80836 140.199 4.4576 141.683C5.65859 144.427 7.24238 146.799 8.92624 149.364C11.4703 153.241 13.0118 158.292 16.8323 161.166C20.329 163.797 24.1021 166.548 28.1414 168.394C34.684 171.385 41.6503 173.406 48.2502 176.25C56.3691 179.749 65.4918 184.256 74.2371 185.678C81.7922 186.906 89.1152 184.394 96.3052 182.046C101.482 180.356 108.614 180.108 113.974 180.021C120.969 179.908 127.57 178.313 134.048 175.622C140.534 172.926 145.741 168.321 151.373 164.169C158.234 159.11 164.98 152.791 170.966 146.711C174.203 143.422 172.72 140.046 173.819 136.026C175.309 130.577 174.159 123.442 174.747 117.765C175.568 109.842 174.128 102.139 174.128 94.2308C174.128 86.1238 173.125 77.8009 172.135 69.7542C171.493 64.537 172.289 55.4125 168.56 51.1785C165.534 47.744 164.101 44.1306 160.379 41.1225C157.256 38.5996 154.649 36.1404 151.854 33.3012C149.814 31.2294 147.25 29.9092 145.426 27.6447C137.816 18.197 128.272 12.5082 116.036 10.9545C105.812 9.65639 96.3257 3.43849 85.6493 4.04099C83.4609 4.16449 80.549 6.07662 78.5682 6.86924C75.7814 7.98438 72.8434 8.93719 70.1809 10.326C63.6981 13.7075 57.1362 17.9689 51.1376 22.1278C45.6063 25.9628 39.2598 30.1515 33.1944 32.952C30.5612 34.1678 28.4193 37.521 25.9414 39.2719C22.9831 41.3624 20.3006 44.1022 17.8979 46.8139C13.5457 51.726 8.35519 56.0578 7.72314 63.12C7.47768 65.8628 7.68877 68.7525 7.68877 71.5C7.68877 78.0726 6.62196 84.5748 7.03566 91.0883Z" fill="#64DDF2"/>
<path d="M4.40397 140.192C3.66794 123.743 8.0803 107.536 7.03566 91.0883C6.62196 84.5748 7.68877 78.0726 7.68877 71.5C7.68877 68.7525 7.47768 65.8628 7.72314 63.12C8.35519 56.0578 13.5457 51.726 17.8979 46.8139C20.3006 44.1022 22.9831 41.3624 25.9414 39.2719C28.4193 37.521 30.5612 34.1678 33.1944 32.952C39.2598 30.1515 45.6063 25.9628 51.1376 22.1278C57.1362 17.9689 63.6981 13.7075 70.1809 10.326C72.8434 8.93719 75.7814 7.98438 78.5682 6.86924C80.549 6.07662 83.4609 4.16449 85.6493 4.04099C96.3257 3.43849 105.812 9.65639 116.036 10.9545C128.272 12.5082 137.816 18.197 145.426 27.6447C147.25 29.9092 149.814 31.2294 151.854 33.3012C154.649 36.1404 157.256 38.5996 160.379 41.1225C164.101 44.1306 165.534 47.744 168.56 51.1785C172.289 55.4125 171.493 64.537 172.135 69.7542C173.125 77.8009 174.128 86.1238 174.128 94.2308C174.128 102.139 175.568 109.842 174.747 117.765C174.159 123.442 175.309 130.577 173.819 136.026C172.72 140.046 174.203 143.422 170.966 146.711C164.98 152.791 158.234 159.11 151.373 164.169C145.741 168.321 140.534 172.926 134.048 175.622C127.57 178.313 120.969 179.908 113.974 180.021C108.614 180.108 101.482 180.356 96.3052 182.046C89.1152 184.394 81.7922 186.906 74.2371 185.678C65.4918 184.256 56.3691 179.749 48.2502 176.25C41.6503 173.406 34.684 171.385 28.1414 168.394C24.1021 166.548 20.329 163.797 16.8323 161.166C13.0118 158.291 11.4703 153.241 8.92624 149.364C7.24238 146.799 5.65859 144.427 4.4576 141.683C2.85064 138.01 5.90113 139.029 7.07003 136.655" stroke="black" stroke-width="7" stroke-linecap="round"/>
<path d="M54.5274 122.937L67.9366 130.446L46.4819 140.101L32 132.591V110.6L127.473 68.2274L113.528 60.1819L133.91 50.5273L149.464 58.5728V80.5639L54.5274 122.937Z" fill="black"/>
<path d="M91.0053 161.555L60.9688 146.537L80.8143 136.882L91.0053 142.246L103.342 136.882L121.578 146.537L91.0053 161.555Z" fill="black"/>
<path d="M132.3 140.637L92.6094 120.791L111.382 111.673L132.3 122.401V102.555L150.001 95.0458V132.591L132.3 140.637Z" fill="black"/>
<path d="M50.2365 88.073L32 96.1185V58.0365L50.2365 49.991L89.9276 70.3729L70.6184 78.9548L50.2365 68.2274V88.073Z" fill="black"/>
<path d="M81.3507 53.7456L60.9688 44.091L91.0053 28L121.578 44.091L101.196 53.7456L91.0053 49.4547L81.3507 53.7456Z" fill="black"/>
</svg>
